<svg id="svg-7521" xmlns="http://www.w3.org/2000/svg" width="915" height="872" viewBox="0 0 915 872" fill="none"><path d="M805.991 201.973H859.67L864.523 275.561H802.942L805.991 201.973Z" fill="#D5B29D"></path><path d="M805.982 201.973H859.493L855.14 275.561H798.413L805.982 201.973Z" fill="#E8C2AC"></path><path d="M806.783 248.215H850.302L848.613 268.728H804.71L806.783 248.215Z" fill="#C7FAD8"></path><path d="M405.575 201.973H459.254L464.107 275.561H402.526L405.575 201.973Z" fill="#D5B29D"></path><path d="M405.566 201.973H459.077L454.724 275.561H397.997L405.566 201.973Z" fill="#E8C2AC"></path><path d="M727.532 201.973H781.211L786.064 275.561H724.483L727.532 201.973Z" fill="#D5B29D"></path><path d="M727.523 201.973H781.034L776.681 275.561H719.954L727.523 201.973Z" fill="#E8C2AC"></path><rect x="390.649" y="275.822" width="483.675" height="12.9858" fill="#D9D9D9"></rect><rect x="390.649" y="275.561" width="483.675" height="12.9858" fill="#D9D9D9"></rect><rect x="390.649" y="174.574" width="483.675" height="12.9858" fill="#D9D9D9"></rect><rect x="390.649" y="73.5879" width="483.675" height="12.9858" fill="#D9D9D9"></rect><path d="M163.99 132.166C177.208 131.758 187.592 120.714 187.184 107.496C186.777 94.2792 175.731 83.8949 162.514 84.3026C149.297 84.7103 138.913 95.7557 139.32 108.972C139.728 122.19 150.773 132.573 163.99 132.166Z" fill="#1F2D49"></path><path d="M140.592 102.661C149.476 102.386 156.456 94.9628 156.182 86.078C155.908 77.1942 148.484 70.2148 139.6 70.4888C130.716 70.7628 123.737 78.1866 124.011 87.0703C124.285 95.9551 131.709 102.935 140.592 102.661Z" fill="#1F2D49"></path><path d="M141.65 801.913C141.835 801.755 142.007 801.769 141.993 801.94C142.164 801.953 142.164 801.954 142.323 802.138C143.883 802.906 145.373 803.813 146.772 804.846L144.714 831.312L141.27 831.217C141.27 831.217 139.618 819.183 139.581 815.211C139.542 813.483 139.492 811.926 139.441 810.369C139.375 808.983 139.139 807.585 139.061 806.371C138.693 804.445 141.439 802.414 141.28 802.23C141.293 802.058 141.65 801.913 141.65 801.913Z" fill="#233B62"></path><path d="M143.539 588.963L143.964 616.777L146.043 772.059L146 774.818L146.394 776.401L146.381 776.572L153.009 804.523L153.797 807.69L154.061 808.746L158.624 827.735L167.863 824.313L170.529 823.312L174.263 821.877L180.295 819.758L180.466 819.771L186.854 817.507L186.722 816.979L176.995 788.96C175.124 783.538 174.454 777.776 175.03 772.069L190.484 619.876L193.423 590.943L143.539 588.963Z" fill="#FFCCB3"></path><path d="M137.243 787.595C139.099 781.991 141.596 776.089 145.872 772.046C145.706 776.751 148.622 781.707 149.95 786.167C152.686 795.348 155.443 814.884 169.293 819.247C177.074 821.7 186.71 817.151 186.723 816.979C193.358 820.94 221.375 835.993 197.172 835.737C183.656 835.593 169.695 834.932 158.885 831.035C154.453 829.438 154.023 823.599 152.694 819.683C150.371 814.088 147.589 806.368 142.812 802.522L142.64 802.509C142.148 802.415 141.454 830.894 141.272 831.218C139.913 830.94 137.011 830.542 137.011 830.542C137.011 830.542 136.821 788.598 137.243 787.595Z" fill="#00C281"></path><path d="M231.142 800.212C231.328 800.056 231.5 800.071 231.485 800.242C231.656 800.258 231.656 800.258 231.812 800.444C233.364 801.23 234.843 802.153 236.231 803.2L233.883 829.642L230.441 829.51C230.441 829.51 228.92 817.459 228.927 813.487C228.908 811.758 228.874 810.201 228.839 808.643C228.789 807.257 228.568 805.856 228.504 804.641C228.157 802.711 230.924 800.711 230.769 800.525C230.783 800.353 231.142 800.212 231.142 800.212Z" fill="#233B62"></path><path d="M235.366 587.294L235.487 615.11L235.861 770.406L235.788 773.164L236.166 774.751L236.15 774.923L242.47 802.944L243.225 806.12L243.476 807.178L247.83 826.217L257.106 822.896L259.783 821.925L263.534 820.531L269.588 818.477L269.759 818.493L276.171 816.298L276.046 815.769L266.626 787.645C264.815 782.204 264.207 776.434 264.846 770.735L281.97 618.719L285.227 589.82L235.366 587.294Z" fill="#FFCCB3"></path><path d="M226.891 785.845C228.808 780.262 231.369 774.387 235.69 770.392C235.472 775.095 238.334 780.083 239.614 784.557C242.248 793.767 244.791 813.332 258.591 817.848C266.345 820.385 276.031 815.942 276.046 815.77C282.637 819.804 310.487 835.164 286.288 834.642C272.775 834.349 258.822 833.535 248.055 829.52C243.641 827.874 243.275 822.031 241.989 818.101C239.729 812.481 237.03 804.731 232.296 800.832L232.124 800.818C231.633 800.719 230.626 829.188 230.441 829.51C229.085 829.217 226.187 828.787 226.187 828.787C226.187 828.787 226.457 786.843 226.891 785.845Z" fill="#00C281"></path><path d="M259.07 377.424C259.07 377.424 299.452 559.892 302.688 579.488C305.924 599.085 311.903 736.049 311.903 736.049L204.787 733.296L217.213 571.12L211.787 500.226C211.787 500.226 209.87 570.551 207.381 582.428C204.891 594.305 209.565 742.752 209.565 742.752L116.384 742.08L146.081 574.678C146.081 574.678 141.883 484.794 142.389 454.994C143.363 397.554 151.872 382.237 151.872 382.237L259.07 377.424Z" fill="#1F2D49"></path><path d="M259.016 377.83L151.873 382.238L146.495 403.979L261.063 385.423L259.016 377.83Z" fill="#0D1B33"></path><path d="M370.458 243.591L378.294 232.896C379.926 230.399 382.136 228.331 384.737 226.867C388.689 224.734 394.728 220.794 396.752 216.98C400.112 210.913 413.586 194.391 401.083 182.256C396.455 177.779 397.609 178.837 388.647 179.252C379.684 179.666 378.595 189.013 374.302 195.242C374.302 195.242 373.077 188.248 368.026 185.191C362.973 182.134 366.865 201.638 363.283 209.186C359.702 216.733 362.868 219.446 354.243 232.779L370.458 243.591Z" fill="#FFCCB3"></path><path d="M390.043 180.282L383.268 197.04L390.043 180.282Z" fill="#E56441"></path><path d="M390.043 180.282L383.268 197.04" stroke="white" stroke-width="1.03302" stroke-linecap="round"></path><path d="M399.638 182.929L390.084 200.844L399.638 182.929Z" fill="#E56441"></path><path d="M399.638 182.929L390.084 200.844" stroke="white" stroke-width="1.03302" stroke-linecap="round"></path><path d="M405.956 194.32L398.321 205.075L405.956 194.32Z" fill="#E56441"></path><path d="M405.956 194.32L398.321 205.075" stroke="white" stroke-width="1.03302" stroke-linecap="round"></path><path d="M376.292 198.932C376.292 198.932 379.647 207.669 379.329 214.645L376.292 198.932Z" fill="#E56441"></path><path d="M376.292 198.932C376.292 198.932 379.647 207.669 379.329 214.645" stroke="white" stroke-width="1.03302" stroke-linecap="round"></path><path d="M243.229 219.482C251.695 222.127 263.552 227.655 266.915 234.128L296.796 296.869L354.064 226.968L375.202 243.446L318.64 333.937C306.646 353.05 288.293 356.197 276.13 341.138L251.673 305.217L243.229 219.482Z" fill="#00C281"></path><path d="M256.824 273.863C256.824 273.863 259.207 269.444 259.906 292.11L276.131 341.136L251.674 305.216C232.182 280.632 246.76 273.455 256.824 273.863Z" fill="#009966"></path><path d="M223.316 211.745C223.316 211.745 245.186 219.628 248.567 222.164C251.946 224.702 255.743 246.144 261.666 256.197C267.59 266.25 276.377 284.872 264.929 302.578C253.48 320.285 255.18 334.014 255.18 334.014L259.071 377.425L155.861 382.514C154.953 382.571 154.043 382.434 153.192 382.112C152.339 381.791 151.566 381.293 150.922 380.65C150.276 380.008 149.775 379.235 149.452 378.385C149.128 377.534 148.988 376.624 149.042 375.716C149.799 363.001 154.491 345.031 154.28 324.828C153.995 297.447 155.806 205.74 155.806 205.74L196.534 203.203C205.644 204.485 223.316 211.745 223.316 211.745Z" fill="white"></path><path d="M255.875 341.762L255.875 341.761L255.51 337.694C255.366 335.162 255.289 332.035 255.267 328.53C255.805 322.925 257.859 313.513 264.929 302.578C276.376 284.872 267.59 266.25 261.666 256.197C255.743 246.143 251.947 224.703 248.567 222.165C245.186 219.628 234.641 215.991 234.641 215.991C234.641 215.991 234.603 234.796 234.509 252.019C234.415 269.243 234.994 416.608 234.994 416.608L278.418 415.269C278.418 415.269 257.685 354.443 255.875 341.762Z" fill="#00C281"></path><path d="M181.401 204.144C181.401 204.144 199.839 234.394 207.785 265.458C215.732 296.523 201.709 402.385 204.434 415.931L123.83 424.594C123.83 424.594 151.595 385.174 152.602 348.888C153.609 312.603 155.081 239.502 155.081 239.502L158.024 205.846L181.401 204.144Z" fill="#00C281"></path><path d="M170.451 242.83C170.451 242.83 177.207 256.302 178.407 266.454C179.605 276.608 171.63 300.954 191.057 303.189C214.872 305.928 209.861 310.558 198.955 313.552C188.047 316.547 175.199 311.58 174.642 322.956C173.769 340.777 161.663 351.135 152.603 348.888C156.959 294.623 149.135 271.257 170.451 242.83Z" fill="#009966"></path><path d="M222.686 185.328L228.35 218.887C228.35 218.887 231.481 225.847 223.827 226.578C216.174 227.308 204.882 223.488 197.883 218.178C190.885 212.868 191.165 212.269 192.719 207.521C194.272 202.772 199.01 168.039 199.01 168.039L222.686 185.328Z" fill="#FFCCB3"></path><path d="M227.53 217.055C223.263 211.491 218.607 203.262 214.896 196.154C212.867 192.268 211.126 188.728 209.892 186.16C209.275 184.875 208.785 183.835 208.449 183.115C208.448 183.113 208.447 183.111 208.446 183.109L222.647 188.522L227.53 217.055Z" fill="#FCBA9F" stroke="#FCBA9F"></path><path d="M233.788 120.012C233.788 120.012 246.964 154.097 240.219 175.497C235.82 189.452 226.345 188.989 203.795 178.729C183.119 169.32 177.713 162.125 177.713 162.125L174.409 127.428C174.409 127.428 220.114 92.3534 233.788 120.012Z" fill="#FFCCB3"></path><path d="M215.056 125.198C215.056 125.198 213.366 134.092 202.437 141.068C196.489 144.865 196.108 160.066 196.108 160.066C196.108 160.066 194.375 149.735 186.344 153.664C178.314 157.594 191.166 170.396 198.317 173.033C198.317 173.033 197.622 177.498 196.013 188.128C196.013 188.128 169.631 179.485 165.856 155.295C163.975 143.249 158.254 105.341 192.31 98.8563C229.566 91.7613 234.91 114.102 240.52 131.645C240.52 131.645 226.019 139.911 215.056 125.198Z" fill="#1F2D49"></path><path d="M220.183 167.727L231.272 166.86C231.264 166.899 231.255 166.938 231.246 166.978C231.148 167.423 230.976 168.022 230.683 168.644C230.099 169.886 229.061 171.178 227.193 171.595C224.145 171.989 222.372 170.863 221.345 169.675C220.821 169.069 220.482 168.435 220.274 167.952C220.241 167.872 220.209 167.797 220.183 167.727Z" fill="#E56441" stroke="#E56441"></path><path d="M233.475 149.603C234.706 149.233 235.263 147.462 234.717 145.648C234.171 143.833 232.732 142.661 231.5 143.032C230.268 143.402 229.713 145.173 230.258 146.988C230.803 148.802 232.244 149.973 233.475 149.603Z" fill="#080B09"></path><path d="M215.366 155.33C216.597 154.96 217.152 153.189 216.607 151.374C216.062 149.56 214.621 148.389 213.39 148.759C212.159 149.129 211.603 150.9 212.148 152.714C212.694 154.529 214.134 155.7 215.366 155.33Z" fill="#080B09"></path><path d="M234.61 137.41L225.402 140.343C225.242 140.38 225.074 140.357 224.928 140.279C224.783 140.201 224.671 140.072 224.613 139.918C224.562 139.627 224.571 139.328 224.639 139.04C224.707 138.752 224.833 138.48 225.008 138.242C225.184 138.004 225.406 137.804 225.662 137.653C225.916 137.503 226.199 137.406 226.493 137.369L234.443 136.302C235.049 136.12 235.369 137.181 234.61 137.41Z" fill="#080B09"></path><path d="M203.098 146.25L215.614 143.314C215.489 142.943 215.288 142.602 215.024 142.313C214.759 142.024 214.437 141.793 214.078 141.636C213.719 141.479 213.332 141.399 212.94 141.401C212.548 141.403 212.162 141.487 211.804 141.647L202.718 145.537C202.415 145.627 202.643 146.386 203.098 146.25Z" fill="#080B09"></path><path d="M224.662 147.67L228.44 155.444L227.355 159.102" stroke="#E56441" stroke-width="1.03302" stroke-linecap="round"></path><path d="M165.588 220.244C165.588 220.244 141.907 209.727 137.744 217.08C129.06 231.783 115.878 282.47 111.339 294.313C110.612 296.467 146.941 301.225 146.941 301.225L180.609 239.532L165.588 220.244Z" fill="#00C281"></path><path d="M158.929 254.35C172.322 253.937 182.845 242.744 182.432 229.351C182.018 215.959 170.826 205.436 157.433 205.849C144.039 206.262 133.518 217.455 133.931 230.848C134.344 244.24 145.536 254.763 158.929 254.35Z" fill="#00C281"></path><path d="M105.019 313.461L138.221 325.091L146.94 301.223L148.393 297.455L114.293 285.281L112.838 289.768L105.019 313.461Z" fill="#00C281"></path><path d="M121.986 337.245C131.708 336.945 139.346 328.82 139.046 319.097C138.746 309.375 130.622 301.737 120.9 302.037C111.177 302.337 103.539 310.461 103.839 320.183C104.139 329.906 112.263 337.545 121.986 337.245Z" fill="#00C281"></path><path d="M226.314 321.397C226.314 321.397 244.717 327.028 254.855 322.363C254.855 322.363 271.705 329.125 274.031 327.813C277.83 325.516 274.648 321.87 274.648 321.87C274.648 321.87 285.506 324.558 286.661 314.329C288.385 299.99 268.812 297.527 259.56 296.751C250.455 295.766 225.761 303.475 225.761 303.475L226.314 321.397Z" fill="#FFCCB3"></path><path d="M277.9 295.23L258.614 296.548L277.405 301.881C277.405 301.881 283.946 298.566 280.77 296.012C279.939 295.414 278.919 295.135 277.9 295.23Z" fill="#FFCCB3"></path><path d="M274.471 321.899L262.307 317.977L274.471 321.899Z" fill="#FCBA9F"></path><path d="M274.471 321.899L262.307 317.977" stroke="#E56441" stroke-width="1.03302" stroke-linecap="round"></path><path d="M280.482 313.388C280.482 313.388 266.748 308.825 263.792 308.605L280.482 313.388Z" fill="#FCBA9F"></path><path d="M280.482 313.388C280.482 313.388 266.748 308.825 263.792 308.605" stroke="#E56441" stroke-width="1.03302" stroke-linecap="round"></path><path d="M281.832 306.407C276.358 303.928 270.542 302.287 264.58 301.538L281.832 306.407Z" fill="#FCBA9F"></path><path d="M281.832 306.407C276.358 303.928 270.542 302.287 264.58 301.538" stroke="#E56441" stroke-width="1.03302" stroke-linecap="round"></path><path d="M121.315 301.971C121.315 301.971 220.144 303.699 227.522 302.063L227.977 323.333L125.642 336.604L121.315 301.971Z" fill="#00C281"></path><path d="M186.218 203.996C186.218 203.996 187.999 275.553 215.972 282.139C243.944 288.725 243.229 219.481 243.229 219.481" stroke="white" stroke-width="1.78858" stroke-miterlimit="10"></path><path d="M878.308 763.929L827.618 831.314C826.428 832.902 824.648 833.95 822.688 834.228C820.718 834.506 818.718 833.992 817.138 832.797L812.428 829.258L872.118 749.902L876.828 753.441C878.418 754.635 879.458 756.411 879.738 758.378C880.018 760.345 879.508 762.342 878.308 763.929Z" fill="#5229A3"></path><path d="M830.499 724.469L848.769 739.322L830.209 767.971L809.599 752.244L830.499 724.469Z" fill="#FFCCB3"></path><path d="M838.609 731.706L815.849 756.535L810.309 752.166L831.629 725.973L838.609 731.706Z" fill="#FCBA9F" stroke="#FCBA9F"></path><path d="M846.318 737.479C846.318 737.479 841.188 755.527 824.278 764.772L809.008 824.474C809.498 827.901 813.328 830.102 815.868 830.918C816.428 831.094 817.028 831.092 817.588 830.911C818.148 830.731 818.628 830.382 818.978 829.911L873.168 757.877C874.068 756.675 874.468 755.167 874.278 753.675C874.078 752.184 873.308 750.828 872.118 749.901C867.388 746.189 860.118 740.593 856.978 738.673C852.108 735.704 848.648 735.017 846.318 737.479Z" fill="#5229A3"></path><path d="M820.748 777.152L829.438 775.288C829.758 775.22 830.088 775.231 830.398 775.32C830.708 775.409 830.988 775.574 831.228 775.799C831.458 776.024 831.638 776.304 831.738 776.612C831.838 776.921 831.858 777.25 831.798 777.569C831.728 777.961 831.548 778.323 831.268 778.608C830.988 778.892 830.638 779.087 830.248 779.166L819.578 781.319L820.748 777.152Z" fill="white"></path><path d="M818.699 786.613L827.339 784.728C827.659 784.66 827.989 784.671 828.299 784.76C828.609 784.849 828.899 785.014 829.129 785.239C829.369 785.464 829.539 785.744 829.639 786.052C829.739 786.361 829.759 786.69 829.709 787.009C829.639 787.401 829.449 787.763 829.169 788.048C828.899 788.333 828.539 788.527 828.149 788.606L817.629 790.788L818.699 786.613Z" fill="white"></path><path d="M816.059 796.912L824.609 795.003C824.929 794.935 825.259 794.946 825.569 795.035C825.879 795.124 826.169 795.288 826.399 795.514C826.629 795.739 826.809 796.018 826.909 796.327C827.009 796.636 827.029 796.964 826.969 797.284C826.899 797.676 826.719 798.038 826.439 798.322C826.159 798.607 825.809 798.801 825.419 798.88L815.019 800.978L816.059 796.912Z" fill="white"></path><path d="M656.78 645.937L801.448 762.492L834.448 724.031L707.96 605.361L656.78 645.937Z" fill="#1F2D49"></path><path d="M734.377 630.143V708.454L801.449 762.492L811.079 702.104L734.377 630.143Z" fill="#0D1B33"></path><path d="M669.618 431.658L645.838 621.286H712.325L770.078 432.609L669.618 431.658Z" fill="#1F2D49"></path><path d="M726.706 574.309L737.873 480.236H765.328L726.706 574.309Z" fill="#0D1B33"></path><path d="M786.388 835.624H702.066C700.08 835.624 698.174 834.835 696.77 833.43C695.365 832.025 694.576 830.12 694.576 828.133V822.246H793.878V828.133C793.878 830.12 793.088 832.025 791.688 833.43C790.278 834.835 788.378 835.624 786.388 835.624Z" fill="#5229A3"></path><path d="M789.178 773.691L788.298 797.226L754.239 799.61L754.422 773.691H789.178Z" fill="#FFCCB3"></path><path d="M788.279 784.53L754.75 781.264L754.911 774.211L788.659 775.502L788.279 784.53Z" fill="#FCBA9F" stroke="#FCBA9F"></path><path d="M788.298 794.162C788.298 794.162 770.788 800.908 753.235 792.955L696.343 816.639C693.895 819.087 694.439 823.469 695.317 825.994C695.512 826.547 695.875 827.025 696.354 827.363C696.834 827.7 697.407 827.88 697.993 827.877H788.128C789.638 827.878 791.078 827.289 792.158 826.236C793.228 825.183 793.848 823.751 793.878 822.247C793.998 816.229 794.098 807.06 793.748 803.391C793.198 797.72 791.658 794.537 788.298 794.162Z" fill="#5229A3"></path><path d="M741.217 797.572L747.93 803.396C748.175 803.609 748.364 803.879 748.481 804.181C748.597 804.484 748.637 804.811 748.598 805.134C748.558 805.456 748.44 805.763 748.253 806.029C748.067 806.295 747.818 806.51 747.529 806.657C747.174 806.838 746.773 806.907 746.379 806.856C745.984 806.805 745.614 806.636 745.317 806.372L737.183 799.141L741.217 797.572Z" fill="white"></path><path d="M732.422 801.619L739.126 807.395C739.371 807.608 739.56 807.877 739.677 808.18C739.793 808.483 739.833 808.81 739.794 809.132C739.754 809.455 739.636 809.762 739.449 810.028C739.263 810.294 739.014 810.509 738.725 810.656C738.37 810.837 737.969 810.906 737.575 810.855C737.18 810.804 736.81 810.635 736.512 810.371L728.444 803.275L732.422 801.619Z" fill="white"></path><path d="M722.609 805.705L729.272 811.387C729.517 811.6 729.706 811.869 729.823 812.172C729.939 812.475 729.979 812.802 729.94 813.125C729.9 813.447 729.782 813.754 729.595 814.02C729.409 814.286 729.16 814.501 728.871 814.648C728.516 814.829 728.115 814.898 727.721 814.847C727.326 814.796 726.956 814.627 726.659 814.363L718.734 807.318L722.609 805.705Z" fill="white"></path><path d="M810.419 432.609C809.869 442.225 809.869 451.865 810.419 461.481C812.629 492.565 805.559 583.338 805.619 595.282C805.669 607.227 797.809 775.46 797.809 775.46H750.005C750.005 775.46 737.786 630.879 737.503 614.332C737.221 597.786 734.377 433.289 734.377 433.289L810.419 432.609Z" fill="#1F2D49"></path><path d="M668.178 443.14L810.418 461.481V432.609L668.915 437.262L668.178 443.14Z" fill="#0D1B33"></path><path d="M679.083 654.53C697.443 654.53 712.326 639.647 712.326 621.287C712.326 602.927 697.443 588.043 679.083 588.043C660.723 588.043 645.84 602.927 645.84 621.287C645.84 639.647 660.723 654.53 679.083 654.53Z" fill="#1F2D49"></path><path d="M778.028 453.557C778.028 453.557 771.638 465.63 770.078 467.015C768.528 468.401 742.846 471.568 737.873 473.349C732.9 475.13 730.525 477.823 730.525 480.237H790.888C790.888 480.237 792.448 478.781 793.578 474.14C794.698 469.5 796.668 467.532 796.668 467.532L778.028 453.557Z" fill="#FFCCB3"></path><path d="M691.262 263.359C695.232 243.761 685.896 244.266 682.789 241.15C682.789 241.15 671.133 231.538 662.252 240.498C652.851 249.975 598.963 323.595 598.963 323.595L632.681 354.606L639.018 347.043L655.436 327.463L672.996 306.535L675.177 304.153L698.866 277.322C698.866 277.322 689.017 273.677 691.262 263.359Z" fill="#5229A3"></path><path d="M705.365 266.7C709.91 253.13 702.594 238.444 689.024 233.899C675.453 229.354 660.768 236.67 656.222 250.24C651.677 263.811 658.994 278.496 672.564 283.041C686.134 287.587 700.82 280.27 705.365 266.7Z" fill="#5229A3"></path><path d="M674.867 304.049C675.546 299.952 676.907 291.76 678.37 284.294L686.15 248.156C686.15 248.156 665.256 279.036 655.63 300.546C648.502 316.665 640.232 333.093 638.864 346.991L655.28 327.41L672.84 306.483L674.867 304.049Z" fill="#3D1F7A"></path><path d="M565.284 240.711C557.272 226.097 561.122 223.617 557.714 215.302C554.356 207.189 560.318 187.076 554.61 189.818C548.903 192.561 547.137 199.849 547.137 199.849C543.233 192.943 539.638 180.238 530.293 178.784C520.948 177.33 520.121 180.271 514.823 184.617C500.732 196.342 518.701 213.962 521.7 220.672C523.631 224.878 537.808 237.701 539.379 240.503L546.515 250.855L565.284 240.711Z" fill="#FFCCB3"></path><path d="M537.753 200.755L526.366 179.73" stroke="#FCBA9F" stroke-width="1.07832" stroke-linecap="round"></path><path d="M530.292 204.16L517.881 184.58" stroke="#FCBA9F" stroke-width="1.07832" stroke-linecap="round"></path><path d="M521.428 207.924L514.334 196.066" stroke="#FCBA9F" stroke-width="1.07832" stroke-linecap="round"></path><path d="M540.567 219.263C540.627 211.983 544.996 203.174 544.996 203.174" stroke="#FCBA9F" stroke-width="1.07832" stroke-linecap="round"></path><path d="M632.966 323.01L564.402 231.702C563.965 231.166 563.345 230.809 562.661 230.703C561.977 230.596 561.278 230.747 560.699 231.125L542.745 242.999C541.892 243.577 541.284 244.451 541.04 245.452C540.796 246.453 540.932 247.51 541.423 248.416L596.561 350.101L632.966 323.01Z" fill="#5229A3"></path><path d="M616.308 361.576C628.989 361.576 639.269 351.296 639.269 338.615C639.269 325.934 628.989 315.654 616.308 315.654C603.627 315.654 593.347 325.934 593.347 338.615C593.347 351.296 603.627 361.576 616.308 361.576Z" fill="#5229A3"></path><path d="M712.243 220.51C712.243 220.51 678.767 231.159 672.162 233.921C665.557 236.684 665.116 247.736 664.676 255.564C664.368 261.049 670.559 351.115 670.966 403.277C671.053 414.421 668.975 421.492 667.64 427.685C666.306 433.879 667.64 437.25 667.64 437.25L811.078 438.533C811.078 438.533 806.778 257.296 805.898 250.85C805.018 244.403 811.938 238.851 804.438 235.606L749.665 220.51H712.243Z" fill="#F5F5F5"></path><path d="M694.244 226.324C694.244 226.324 699.709 251.324 703.29 271.332C706.871 291.34 707.961 456.976 707.961 456.976C707.961 456.976 666.046 448.827 660.369 439.198C654.691 429.568 665.627 386.303 666.478 346.992C667.33 307.681 659.055 246.675 667.743 236.091C667.743 236.092 669.971 233.883 694.244 226.324Z" fill="#5229A3"></path><path d="M764.688 224.717C764.688 224.717 744.801 266.153 746.017 278.782C747.234 291.411 747.303 399.112 746.017 421.598C745.219 435.277 743.135 448.851 739.793 462.139C739.793 462.139 794.048 465.981 815.008 459.419C815.008 459.419 824.968 396.763 818.428 374.38C811.898 351.997 806.908 235.667 806.908 235.667L764.688 224.717Z" fill="#5229A3"></path><path d="M779.368 280.4C779.368 280.4 781.398 355.495 780.978 380.526C780.718 396.124 762.878 402.73 762.828 411.761C762.798 417.104 776.908 410.849 780.718 416.373C784.518 421.896 778.018 439.198 778.018 439.198L811.078 438.534L824.328 374.265L796.418 276.535L779.368 280.4Z" fill="#3D1F7A"></path><path d="M712.931 203.773L709.826 238.77C709.826 238.77 708.998 244.206 718.439 245.926C725.936 247.291 741.515 238.482 745.032 235.58C752.848 229.13 753.57 225.227 752.744 222.238C751.561 217.955 747.694 187.775 747.694 187.775L712.931 203.773Z" fill="#FFCCB3"></path><path d="M710.893 232.413L712.806 210.842L729.47 202.611L710.893 232.413Z" fill="#FCBA9F" stroke="#FCBA9F"></path><path d="M694.407 137.535C694.407 137.535 688.023 166.128 687.174 185.601C686.317 205.248 693.337 208.989 702.041 210.456C708.906 211.613 719.585 211.697 726.301 208.344C738.545 202.229 758.648 187.388 761.279 184.509C765.358 180.051 765.078 160.168 749.516 155.251C738.199 151.674 709.344 121.309 694.407 137.535Z" fill="#FFCCB3"></path><path d="M694.47 140.584C703.753 144.223 721.225 141.832 730.822 144.947C740.406 148.07 731.685 151.367 732.103 160.626C732.372 166.623 732.828 178.083 736.508 177.931C740.188 177.78 742.356 164.765 750.117 165.261C757.876 165.767 761.536 169.081 761.365 174.044C761.198 178.998 755.621 183.315 751.222 185.607C745.715 188.459 743.442 187.263 743.442 187.263C743.442 187.263 749.64 210.083 750.576 209.179C750.576 209.179 757.261 205.406 758.467 198.801C758.467 198.801 767.338 196.879 765.378 188.006C765.378 188.006 770.898 186.233 768.278 181.096C768.278 181.096 782.558 171.494 775.118 159.744C775.118 159.744 781.888 152.988 773.798 150.131C773.798 150.131 784.518 134.469 769.268 131.13C769.268 131.13 770.288 123.758 763.308 124.039C763.308 124.039 760.261 111.359 745.03 116.36C744.957 113.821 744.119 111.363 742.625 109.309C741.131 107.255 739.05 105.7 736.657 104.849C728.031 101.375 722.417 106.156 722.417 106.156C722.417 106.156 713.364 98.7723 708.597 109.598C708.597 109.598 701.75 106.098 696.617 109.817C691.476 113.524 693.975 121.295 693.975 121.295C693.975 121.295 688.1 119.918 685.956 124.784C682.928 131.631 687.18 134.126 687.18 134.126C687.18 134.126 677.615 145.434 691.066 156.145L694.47 140.584Z" fill="#493212"></path><path d="M717.833 168.811C718.338 166.498 717.519 164.355 716.004 164.024C714.489 163.693 712.852 165.3 712.347 167.612C711.841 169.924 712.66 172.067 714.175 172.398C715.69 172.729 717.328 171.123 717.833 168.811Z" fill="#080B09"></path><path d="M696.987 164.116C697.492 161.804 696.674 159.661 695.159 159.33C693.644 158.999 692.006 160.605 691.501 162.918C690.996 165.23 691.814 167.373 693.329 167.704C694.844 168.035 696.482 166.429 696.987 164.116Z" fill="#080B09"></path><path d="M701.107 170.256C701.107 170.256 703.696 175.242 699.955 175.318C696.381 175.268 694.299 177.365 697.904 180.404" stroke="#E56441" stroke-width="1.07832" stroke-linecap="round"></path><path d="M698.457 185.015L698.473 185.017L698.489 185.018C700.706 185.177 705.133 185.496 708.076 185.757H708.081C708.167 185.764 708.25 185.794 708.32 185.844C708.39 185.895 708.444 185.963 708.478 186.043C708.512 186.122 708.523 186.209 708.511 186.294C708.499 186.376 708.466 186.454 708.414 186.519C707.767 187.232 706.915 188.08 705.968 188.811C705.011 189.55 703.99 190.144 703.007 190.38C702.045 190.612 701.138 190.499 700.326 189.848C699.49 189.176 698.69 187.883 698.093 185.608L698.083 185.569L698.067 185.532C698.04 185.472 698.03 185.405 698.038 185.34C698.045 185.274 698.07 185.212 698.11 185.159C698.15 185.106 698.203 185.065 698.264 185.04C698.325 185.014 698.391 185.006 698.457 185.015Z" fill="#E56441" stroke="#E56441"></path><path d="M725.096 161.192L724.888 161.611C724.639 162.248 724.148 162.76 723.523 163.037C722.897 163.313 722.188 163.331 721.55 163.086L710.687 158.59C710.153 158.394 709.711 158.004 709.45 157.498C709.189 156.992 709.127 156.406 709.277 155.857C709.354 155.516 709.501 155.195 709.711 154.916C709.92 154.636 710.186 154.405 710.492 154.236C710.797 154.067 711.135 153.964 711.483 153.936C711.831 153.907 712.181 153.952 712.51 154.069L723.58 158.147C723.883 158.242 724.163 158.398 724.405 158.604C724.646 158.811 724.843 159.064 724.985 159.348C725.126 159.632 725.209 159.942 725.228 160.259C725.247 160.576 725.202 160.893 725.096 161.192Z" fill="#080B09"></path><path d="M688.443 151.078L700.214 150.285C700.563 150.265 700.911 150.32 701.237 150.446C701.563 150.572 701.858 150.765 702.104 151.013C702.349 151.261 702.54 151.559 702.662 151.886C702.784 152.213 702.835 152.562 702.812 152.911C702.802 153.48 702.578 154.025 702.184 154.437C701.791 154.849 701.258 155.098 700.689 155.136L689 156.389C688.319 156.444 687.643 156.228 687.121 155.786C686.599 155.345 686.272 154.715 686.212 154.034L686.131 153.574C686.114 153.257 686.16 152.939 686.267 152.641C686.375 152.342 686.542 152.068 686.758 151.835C686.973 151.602 687.234 151.415 687.524 151.285C687.813 151.155 688.126 151.085 688.443 151.078Z" fill="#080B09"></path><path d="M807.989 253.675C793.209 240.2 788.849 248.469 784.579 249.534C784.579 249.534 770.349 254.595 773.469 266.818C776.769 279.752 812.239 363.809 812.239 363.809L856.999 353.213L852.939 341.491L844.579 317.346L835.649 291.529L834.719 288.433L823.869 254.325C823.869 254.325 815.689 260.902 807.989 253.675Z" fill="#5229A3"></path><path d="M815.268 279.828C826.138 270.521 827.409 254.163 818.099 243.292C808.789 232.42 792.429 231.152 781.559 240.459C770.689 249.766 769.419 266.124 778.729 276.995C788.039 287.867 804.388 289.135 815.268 279.828Z" fill="#5229A3"></path><path d="M811.899 351.996L772.309 459.1C772.099 459.758 772.139 460.472 772.419 461.104C772.699 461.736 773.199 462.242 773.839 462.524L793.539 471.179C794.489 471.583 795.559 471.62 796.529 471.283C797.499 470.946 798.319 470.259 798.809 469.355L854.399 367.913L811.899 351.996Z" fill="#5229A3"></path><path d="M834.038 380.502C846.718 380.502 856.998 370.222 856.998 357.541C856.998 344.86 846.718 334.58 834.038 334.58C821.358 334.58 811.078 344.86 811.078 357.541C811.078 370.222 821.358 380.502 834.038 380.502Z" fill="#5229A3"></path><path d="M888.292 480.236H389.18C381.767 480.236 375.756 486.247 375.756 493.661V822.2C375.756 829.615 381.767 835.625 389.18 835.625H888.292C895.707 835.625 901.717 829.615 901.717 822.2V493.661C901.717 486.247 895.707 480.236 888.292 480.236Z" fill="#E7E7FF"></path><path d="M914.797 480.236H359.707V496.477H914.797V480.236Z" fill="#A496FD"></path><path d="M375.756 496.477H901.717V553.385L375.756 517.555V496.477Z" fill="#DFDFFF"></path><path d="M502.563 0H556.242L561.096 73.588H499.515L502.563 0Z" fill="#D5B29D"></path><path d="M502.554 0H556.065L551.713 73.588H494.985L502.554 0Z" fill="#E8C2AC"></path><path d="M540.43 100.986H594.109L598.963 174.574H537.382L540.43 100.986Z" fill="#D5B29D"></path><path d="M540.422 100.986H593.932L589.58 174.574H532.853L540.422 100.986Z" fill="#E8C2AC"></path><path d="M623.437 100.986H677.116L681.97 174.574H620.389L623.437 100.986Z" fill="#D5B29D"></path><path d="M623.428 100.986H676.939L672.587 174.574H615.859L623.428 100.986Z" fill="#E8C2AC"></path><path d="M421.759 0H475.438L480.292 73.588H418.711L421.759 0Z" fill="#D5B29D"></path><path d="M421.751 0H475.261L470.909 73.588H414.182L421.751 0Z" fill="#E8C2AC"></path><path d="M423.626 42.8867H467.146L465.457 63.3995H421.554L423.626 42.8867Z" fill="#E0D6F5"></path><path d="M542.669 145.23H586.189L584.5 165.743H540.597L542.669 145.23Z" fill="#E0D6F5"></path><path d="M624.658 147.234H668.177L666.488 167.747H622.585L624.658 147.234Z" fill="#E0D6F5"></path><path d="M504.802 42.8867H548.322L546.633 63.3995H502.729L504.802 42.8867Z" fill="#C7FAD8"></path><path d="M407.814 247.582H451.334L449.645 268.095H405.741L407.814 247.582Z" fill="#C7FAD8"></path></svg>