<svg xmlns="http://www.w3.org/2000/svg" width="1016" height="811" viewBox="0 0 1016 811" fill="none"><path d="M966.648 0.304932H235.298C208.529 0.304932 186.826 22.8991 186.826 50.7708V532.857C186.826 560.729 208.529 583.323 235.298 583.323H966.648C993.421 583.323 1015.12 560.729 1015.12 532.857V50.7708C1015.12 22.8991 993.421 0.304932 966.648 0.304932Z" fill="url(#paint0_linear_819_6396)"></path><path d="M242.256 0.304932H960.87C975.416 0.304932 989.367 6.32042 999.646 17.027C1009.94 27.7336 1015.71 42.2559 1015.71 57.3971H187.42C187.42 42.2559 193.197 27.7336 203.481 17.027C213.765 6.32042 227.712 0.304932 242.256 0.304932Z" fill="#00C281"></path><path d="M623.447 93.635H961.752C967.552 93.635 973.128 96.0354 977.226 100.308C981.336 104.582 983.643 110.377 983.643 116.42V290.529C983.643 296.571 981.336 302.367 977.226 306.64C973.128 310.912 967.552 313.313 961.752 313.313H623.447C617.643 313.313 612.077 310.912 607.972 306.64C603.868 302.367 601.562 296.571 601.562 290.529V116.42C601.562 113.428 602.128 110.466 603.228 107.7C604.328 104.936 605.94 102.424 607.972 100.309C610.004 98.1933 612.417 96.5145 615.072 95.3697C617.727 94.2249 620.573 93.635 623.447 93.635Z" stroke="#5229A3" stroke-width="1.2329" stroke-miterlimit="10" stroke-dasharray="14.71 14.71"></path><path d="M956.557 345.516H537.843C522.884 345.516 510.758 355.717 510.758 368.301V542.41C510.758 554.993 522.884 565.194 537.843 565.194H956.557C971.516 565.194 983.644 554.993 983.644 542.41V368.301C983.644 355.717 971.516 345.516 956.557 345.516Z" fill="white"></path><path d="M469.765 345.516H233.368C223.144 345.516 214.855 354.145 214.855 364.791V545.92C214.855 556.565 223.144 565.194 233.368 565.194H469.765C479.99 565.194 488.278 556.565 488.278 545.92V364.791C488.278 354.145 479.99 345.516 469.765 345.516Z" fill="white"></path><path d="M541.891 381.771H669.79" stroke="#5229A3" stroke-width="19.7265" stroke-miterlimit="10" stroke-linecap="round"></path><path d="M541.891 440.794H669.79" stroke="#5229A3" stroke-width="19.7265" stroke-miterlimit="10" stroke-linecap="round"></path><path d="M541.891 410.478H806.208" stroke="#D4DCF4" stroke-width="19.7265" stroke-miterlimit="10" stroke-linecap="round"></path><path d="M237.53 41.7621C242.705 41.7621 246.901 37.3939 246.901 32.0067C246.901 26.6185 242.705 22.2502 237.53 22.2502C232.356 22.2502 228.16 26.6185 228.16 32.0067C228.16 37.3939 232.356 41.7621 237.53 41.7621Z" fill="white"></path><path d="M269.286 41.7622C274.461 41.7622 278.656 37.394 278.656 32.0069C278.656 26.6186 274.461 22.2504 269.286 22.2504C264.111 22.2504 259.916 26.6186 259.916 32.0069C259.916 37.394 264.111 41.7622 269.286 41.7622Z" fill="white"></path><path d="M300.135 41.7621C305.31 41.7621 309.505 37.3939 309.505 32.0067C309.505 26.6185 305.31 22.2502 300.135 22.2502C294.959 22.2502 290.764 26.6185 290.764 32.0067C290.764 37.3939 294.959 41.7621 300.135 41.7621Z" fill="white"></path><path d="M793.143 242.948C814.083 242.948 831.059 225.275 831.059 203.473C831.059 181.671 814.083 163.997 793.143 163.997C772.203 163.997 755.227 181.671 755.227 203.473C755.227 225.275 772.203 242.948 793.143 242.948Z" fill="#A385E0"></path><path d="M796.136 184.823C796.136 183.103 794.796 181.707 793.143 181.707C791.491 181.707 790.15 183.103 790.15 184.823V224.629C790.15 226.35 791.491 227.745 793.143 227.745C794.796 227.745 796.136 226.35 796.136 224.629V184.823Z" fill="white"></path><path d="M812.261 207.84C813.914 207.84 815.253 206.445 815.253 204.724C815.253 203.003 813.914 201.608 812.261 201.608H774.028C772.374 201.608 771.035 203.003 771.035 204.724C771.035 206.445 772.374 207.84 774.028 207.84H812.261Z" fill="white"></path><path d="M292.62 810.575C454.049 810.575 584.911 801.216 584.911 789.671C584.911 778.126 454.049 768.767 292.62 768.767C131.194 768.767 0.332031 778.126 0.332031 789.671C0.332031 801.216 131.194 810.575 292.62 810.575Z" fill="#F5F8FF"></path><path d="M102.418 674.854L85.3099 789.24L78.7965 788.184C76.5984 787.827 74.6266 786.576 73.3143 784.706C72.0019 782.836 71.4566 780.5 71.7993 778.212L86.3266 681.083C86.6693 678.794 87.8707 676.741 89.6668 675.375C91.4628 674.009 93.7068 673.441 95.9048 673.798L102.418 674.854Z" fill="#5229A3"></path><path d="M155.889 694.104L129.139 685.771L120.635 724.573L149.901 734.139L155.889 694.104Z" fill="#BC775C"></path><path d="M137.481 730.081L132.535 728.465L144.685 690.615L149.202 692.023L137.481 730.081Z" fill="#93523E"></path><path d="M132.53 686.322C132.53 686.322 122.049 705.281 127.825 726.925L91.819 788.209C88.6894 790.59 83.9339 789.178 81.2913 787.714C80.7136 787.39 80.2466 786.886 79.9566 786.273C79.6655 785.661 79.5647 784.969 79.6688 784.294L95.1995 680.463C95.457 678.729 96.3584 677.17 97.7077 676.122C99.0581 675.073 100.749 674.618 102.418 674.854C109.096 675.797 119.26 677.321 123.258 678.39C129.436 680.041 132.695 682.38 132.53 686.322Z" fill="#A385E0"></path><path d="M120.645 739.941L115.358 731.164C115.165 730.844 114.899 730.577 114.584 730.389C114.269 730.2 113.914 730.095 113.551 730.082C113.187 730.071 112.827 730.151 112.501 730.319C112.175 730.486 111.893 730.734 111.68 731.041C111.42 731.417 111.275 731.866 111.262 732.33C111.251 732.794 111.374 733.25 111.615 733.64L118.215 744.306L120.645 739.941Z" fill="white"></path><path d="M114.653 749.344L109.418 740.586C109.224 740.266 108.959 739.999 108.644 739.811C108.328 739.622 107.974 739.517 107.611 739.505C107.247 739.493 106.886 739.574 106.56 739.741C106.235 739.908 105.952 740.156 105.741 740.463C105.48 740.839 105.334 741.288 105.323 741.752C105.311 742.216 105.434 742.673 105.675 743.062L112.136 753.629L114.653 749.344Z" fill="white"></path><path d="M108.441 759.916L103.303 751.222C103.11 750.901 102.844 750.635 102.529 750.447C102.213 750.258 101.858 750.153 101.495 750.141C101.133 750.128 100.772 750.21 100.445 750.377C100.119 750.543 99.8383 750.792 99.6256 751.098C99.3647 751.475 99.2191 751.925 99.2079 752.388C99.1956 752.852 99.3187 753.309 99.5606 753.698L105.99 764.09L108.441 759.916Z" fill="white"></path><path d="M396.504 774.503H507.694V781.366C507.694 782.513 507.477 783.649 507.056 784.707C506.635 785.767 506.017 786.73 505.238 787.54C504.459 788.352 503.534 788.995 502.517 789.433C501.5 789.873 500.409 790.098 499.307 790.098H404.891C402.667 790.098 400.534 789.178 398.961 787.54C397.387 785.903 396.504 783.683 396.504 781.366V774.503Z" fill="#5229A3"></path><path d="M406.544 716.533L402.752 745.333L440.887 748.112L445.462 716.533H406.544Z" fill="#BC775C"></path><path d="M445.068 719.26L444.092 725.999L404.932 728.793L406.187 719.26H445.068Z" fill="#93523E"></path><path d="M402.754 741.76C402.754 741.76 422.36 749.625 442.013 740.354L505.715 767.964C508.457 770.817 507.849 775.927 506.864 778.87C506.646 779.515 506.239 780.072 505.703 780.466C505.166 780.859 504.525 781.069 503.868 781.065H402.936C401.252 781.067 399.636 780.38 398.432 779.152C397.229 777.925 396.537 776.255 396.504 774.502C396.372 767.486 396.254 756.797 396.653 752.52C397.27 745.909 398.988 742.197 402.754 741.76Z" fill="#A385E0"></path><path d="M455.471 745.736L447.953 752.525C447.679 752.772 447.467 753.087 447.337 753.44C447.206 753.794 447.162 754.175 447.206 754.55C447.25 754.925 447.382 755.285 447.591 755.594C447.8 755.904 448.079 756.155 448.402 756.327C448.8 756.537 449.249 756.617 449.691 756.558C450.132 756.499 450.546 756.302 450.88 755.993L459.987 747.565L455.471 745.736Z" fill="white"></path><path d="M465.313 750.453L457.808 757.187C457.532 757.434 457.321 757.749 457.191 758.102C457.06 758.455 457.015 758.837 457.06 759.212C457.103 759.587 457.237 759.946 457.445 760.255C457.653 760.565 457.932 760.817 458.257 760.989C458.653 761.198 459.102 761.279 459.544 761.219C459.986 761.16 460.401 760.964 460.734 760.655L469.768 752.384L465.313 750.453Z" fill="white"></path><path d="M476.306 755.217L468.844 761.842C468.569 762.089 468.358 762.404 468.228 762.757C468.097 763.111 468.052 763.492 468.097 763.867C468.141 764.243 468.273 764.602 468.482 764.912C468.69 765.221 468.969 765.472 469.293 765.644C469.69 765.854 470.139 765.934 470.582 765.875C471.023 765.816 471.437 765.619 471.771 765.31L480.644 757.097L476.306 755.217Z" fill="white"></path><path d="M341.053 339.079L364.097 291.841C364.097 291.841 350.068 293.749 347.623 284.684C345.178 275.618 413.923 267.506 413.923 267.506C413.923 267.506 408.422 287.547 400.173 289.932L377.488 359.118L341.053 339.079Z" fill="#BC775C"></path><path d="M344.487 332.041L380.482 349.993L377.489 359.118L342.51 336.096L344.487 332.041Z" fill="#93523E"></path><path d="M563.956 86.2776L232.609 142.751C226.924 143.72 223.069 149.304 224 155.224L245.637 292.831C246.567 298.75 251.931 302.763 257.617 301.795L588.963 245.32C594.649 244.352 598.503 238.767 597.572 232.848L575.936 95.2402C575.005 89.3215 569.642 85.3077 563.956 86.2776Z" fill="#FEBB94"></path><path d="M394.633 172.558L529.295 149.605" stroke="white" stroke-width="20.3686" stroke-miterlimit="10" stroke-linecap="round"></path><path opacity="0.7" d="M404.199 215.128L492.043 200.156" stroke="white" stroke-width="20.3686" stroke-miterlimit="10" stroke-linecap="round"></path><path d="M314.137 266.452C340.441 266.452 361.764 244.252 361.764 216.867C361.764 189.482 340.441 167.282 314.137 167.282C287.835 167.282 266.512 189.482 266.512 216.867C266.512 244.252 287.835 266.452 314.137 266.452Z" stroke="#EF6A77" stroke-width="20.3686" stroke-miterlimit="10"></path><path d="M361.138 208.855C362.66 218.533 361.391 228.463 357.492 237.391C353.593 246.318 347.239 253.841 339.233 259.009C331.227 264.176 321.928 266.756 312.515 266.422C303.1 266.088 293.993 262.855 286.344 257.131C278.695 251.408 272.847 243.452 269.542 234.269C266.235 225.086 265.619 215.088 267.77 205.54C269.921 195.992 274.744 187.324 281.628 180.628C288.512 173.935 297.148 169.516 306.444 167.932" stroke="white" stroke-width="20.3686" stroke-miterlimit="10" stroke-linecap="round"></path><path d="M329.659 588.171L343.404 750.139C343.404 784.858 309.379 788.808 298.486 784.716C283.122 778.944 134.314 739.503 134.314 739.503L150.085 689.216L264.295 705.743C264.295 705.743 261.172 671.999 230.545 568.961L329.659 588.171Z" fill="#5229A3"></path><path d="M240.747 604.651L333.352 631.722L328.145 566.684L230.543 568.962L240.747 604.651Z" fill="#311862"></path><path d="M328.314 233.311C328.314 233.311 346.653 254.986 352.105 263.758C357.558 272.531 357.753 289.737 346.353 294.122C334.954 298.509 325.629 299.246 308.984 296.01C296.034 293.492 279.245 271.24 284.202 259.888C289.158 248.535 312.206 227.894 328.314 233.311Z" fill="#BC775C"></path><path d="M331.782 293.945L329.056 330.584L289.156 321.554L307 286.98L331.782 293.945Z" fill="#BC775C"></path><path d="M331.784 297.759H320.936L330.216 315.01" fill="#93523E"></path><path d="M284.697 319.231L290.648 313.229C291.42 312.449 292.369 311.885 293.405 311.589C294.442 311.292 295.534 311.271 296.581 311.53L329.207 319.573C329.993 319.767 330.716 320.17 331.308 320.742C331.899 321.314 332.338 322.036 332.583 322.837L334.941 330.583L284.697 319.231Z" fill="url(#paint1_linear_819_6396)"></path><path d="M233.022 504.473L227.182 533.931C220.607 578.87 251.553 608.595 298.849 600.494C341.087 593.259 466.205 542.754 466.205 542.754L461.219 462.822L356.035 480.889C356.035 480.889 261.491 462.653 233.022 504.473Z" fill="#5229A3"></path><path d="M469.055 532.723C487.847 532.723 503.081 516.863 503.081 497.298C503.081 477.733 487.847 461.872 469.055 461.872C450.263 461.872 435.029 477.733 435.029 497.298C435.029 516.863 450.263 532.723 469.055 532.723Z" fill="#5229A3"></path><path d="M469.055 532.723C487.847 532.723 503.081 516.863 503.081 497.298C503.081 477.733 487.847 461.872 469.055 461.872C450.263 461.872 435.029 477.733 435.029 497.298C435.029 516.863 450.263 532.723 469.055 532.723Z" fill="#5229A3"></path><path d="M309.377 786.582C328.169 786.582 343.402 770.721 343.402 751.157C343.402 731.591 328.169 715.731 309.377 715.731C290.585 715.731 275.352 731.591 275.352 751.157C275.352 770.721 290.585 786.582 309.377 786.582Z" fill="#5229A3"></path><path d="M501.42 507.535L453.587 719.261H396.379L435.029 497.298L501.42 507.535Z" fill="#5229A3"></path><path d="M356.036 480.89L230.053 521.71L233.023 504.473L356.036 480.89Z" fill="#311862"></path><path d="M384.307 361.285L396.824 370.767L438.623 299.337C438.623 299.337 433.057 275.94 432.675 271.957L446.275 269.938C446.275 269.938 457.29 248.323 460.43 244.047C463.57 239.772 467.194 240.526 469.126 244.047C469.126 244.047 475.165 245.053 476.131 253.604C476.131 253.604 481.445 254.862 483.619 265.926C483.619 265.926 488.209 270.957 487.242 276.489C486.276 282.022 474.199 303.706 472.266 305.942C470.778 307.765 469.406 309.688 468.16 311.697L427.902 412.134C427.902 412.134 418.065 434.102 395.012 425.77L366.432 411.98C353.314 403.13 384.307 361.285 384.307 361.285Z" fill="#BC775C"></path><path d="M405.374 428.367C418.662 428.367 429.435 417.151 429.435 403.317C429.435 389.481 418.662 378.265 405.374 378.265C392.085 378.265 381.312 389.481 381.312 403.317C381.312 417.151 392.085 428.367 405.374 428.367Z" fill="#BC775C"></path><path d="M304.522 251.373C304.522 251.373 328.066 243.117 332.774 225.829C337.483 208.542 327.571 199.511 314.684 208.284C314.684 208.284 305.514 193.061 289.901 203.64C274.288 214.219 277.263 239.246 277.759 244.148C277.759 244.148 260.163 257.049 268.589 277.433C277.015 297.815 300.135 302.718 300.135 302.718C302.687 298.9 304.513 294.608 305.514 290.076C305.514 290.076 292.773 280.013 300.135 270.208C307.496 260.403 315.922 276.142 315.922 276.142C315.922 276.142 322.366 253.953 304.522 251.373Z" fill="#311862"></path><path d="M284.698 319.231C284.698 319.231 268.353 327.692 264.651 336.804C261.229 345.223 237.433 455.808 230.145 500.323C229.971 501.379 230.049 502.464 230.372 503.48C230.694 504.498 231.253 505.417 231.996 506.157C232.74 506.897 233.647 507.436 234.638 507.725C235.628 508.015 236.671 508.047 237.677 507.818L356.036 480.888C356.036 480.888 350.247 416.124 352.276 397.117C354.303 378.11 334.941 330.583 334.941 330.583L284.698 319.231Z" fill="url(#paint2_linear_819_6396)"></path><path d="M351.855 406.079L322.016 387.616L353.065 440.794L351.855 406.079Z" fill="#A385E0"></path><path d="M396.822 370.766L405.511 377.071L413.922 341.545L396.822 370.766Z" fill="#93523E"></path><path d="M334.941 330.583C334.941 330.583 382.435 357.614 388.201 362.047C388.949 362.621 389.474 363.455 389.684 364.397C389.893 365.34 389.772 366.329 389.342 367.187L367.529 410.791C367.285 411.28 366.946 411.713 366.534 412.061C366.123 412.41 365.649 412.669 365.139 412.819C364.629 412.971 364.094 413.012 363.568 412.94C363.043 412.869 362.537 412.686 362.08 412.404L306.723 378.153C306.723 378.153 303.778 332.562 334.941 330.583Z" fill="url(#paint3_linear_819_6396)"></path><path d="M328.882 265.824C330.019 264.939 329.89 262.755 328.594 260.947C327.296 259.138 325.322 258.39 324.184 259.274C323.046 260.159 323.175 262.343 324.472 264.151C325.769 265.959 327.743 266.709 328.882 265.824Z" fill="#080B09"></path><path d="M344.489 253.528C345.627 252.643 345.498 250.46 344.201 248.651C342.903 246.842 340.929 246.094 339.792 246.978C338.653 247.863 338.783 250.047 340.08 251.855C341.376 253.663 343.35 254.413 344.489 253.528Z" fill="#080B09"></path><path d="M338.17 256.896C338.17 256.896 337.9 262.244 341.048 260.836C344.009 259.384 346.54 260.384 344.684 264.443" stroke="#93523E" stroke-width="1.4903" stroke-linecap="round" stroke-linejoin="round"></path><path d="M345.724 268.261C343.937 269.274 340.362 271.297 338.002 272.686C337.86 272.769 337.742 272.889 337.661 273.036C337.58 273.184 337.539 273.35 337.543 273.519C337.547 273.69 337.596 273.854 337.683 273.997C337.771 274.14 337.895 274.255 338.04 274.33C341.349 275.817 348.435 277.983 346.948 268.955C346.947 268.807 346.908 268.663 346.835 268.536C346.761 268.409 346.657 268.305 346.533 268.234C346.407 268.164 346.267 268.129 346.125 268.133C345.983 268.138 345.845 268.182 345.724 268.261Z" fill="white"></path><path d="M315.457 260.477L315.788 260.759C316.237 261.214 316.841 261.466 317.467 261.459C318.093 261.452 318.692 261.187 319.131 260.723L326.487 252.536C326.859 252.155 327.08 251.643 327.105 251.101C327.131 250.557 326.961 250.025 326.627 249.607C326.435 249.342 326.191 249.121 325.911 248.961C325.63 248.801 325.32 248.705 325.002 248.678C324.682 248.653 324.362 248.697 324.061 248.809C323.76 248.922 323.484 249.099 323.255 249.33L315.567 257.235C315.351 257.438 315.176 257.684 315.053 257.958C314.93 258.232 314.861 258.529 314.851 258.832C314.84 259.134 314.889 259.436 314.993 259.719C315.098 260.001 315.254 260.259 315.457 260.477Z" fill="#080B09"></path><path d="M342.197 237.244L332.08 241.196C331.783 241.317 331.513 241.502 331.289 241.739C331.065 241.977 330.891 242.261 330.781 242.574C330.67 242.886 330.624 243.22 330.646 243.552C330.669 243.884 330.758 244.207 330.909 244.501C331.133 244.991 331.526 245.375 332.01 245.578C332.494 245.781 333.033 245.787 333.522 245.596L343.745 242.075C344.334 241.855 344.815 241.4 345.084 240.81C345.352 240.221 345.386 239.545 345.178 238.931L345.071 238.499C344.965 238.216 344.806 237.96 344.604 237.743C344.401 237.526 344.158 237.353 343.89 237.237C343.622 237.119 343.334 237.06 343.043 237.061C342.753 237.062 342.465 237.125 342.197 237.244Z" fill="#080B09"></path><defs><linearGradient id="svg-8417" x1="580.352" y1="-1.08003" x2="675.241" y2="1242.33" gradientUnits="userSpaceOnUse"><stop stop-color="white"></stop><stop offset="1" stop-color="#00C281"></stop></linearGradient><linearGradient id="paint1_linear_819_6396" x1="308.568" y1="311.305" x2="310.278" y2="352.492" gradientUnits="userSpaceOnUse"><stop stop-color="white"></stop><stop offset="1" stop-color="#5229A3"></stop></linearGradient><linearGradient id="paint2_linear_819_6396" x1="289.909" y1="318.782" x2="353.98" y2="713.244" gradientUnits="userSpaceOnUse"><stop stop-color="white"></stop><stop offset="1" stop-color="#5229A3"></stop></linearGradient><linearGradient id="paint3_linear_819_6396" x1="346.146" y1="330.387" x2="364.921" y2="505.109" gradientUnits="userSpaceOnUse"><stop stop-color="white"></stop><stop offset="1" stop-color="#5229A3"></stop></linearGradient></defs></svg>