<?xml version="1.0" encoding="UTF-8"?> <svg xmlns="http://www.w3.org/2000/svg" width="194" height="44" viewBox="0 0 194 44" fill="none"><path d="M90.238 35.8102C87.3608 35.8102 84.9546 34.8341 83.0195 32.8817C81.1098 30.9293 80.155 28.5274 80.155 25.676C80.155 22.7988 81.0546 20.3207 82.9643 18.394C84.8994 16.4417 87.3226 15.3047 90.1998 15.3047C92.0585 15.3047 93.7993 15.9184 95.3271 16.8175C96.7687 17.666 97.8619 18.8538 98.6223 20.2586C98.6989 20.3999 98.647 20.5758 98.509 20.6566L95.4863 22.4274C95.3339 22.5167 95.1392 22.4547 95.0539 22.2992C94.6237 21.5147 94.0114 20.8934 93.217 20.4354C92.3513 19.896 91.3456 19.6262 90.1998 19.6262C88.5193 19.6262 87.1061 20.2042 85.9603 21.3602C84.84 22.5162 84.2798 23.9548 84.2798 25.676C84.2798 27.3971 84.84 28.8357 85.9603 29.9917C87.1061 31.1477 88.5193 31.7257 90.1998 31.7257C91.3201 31.7257 92.3258 31.456 93.217 30.9165C94.0374 30.4337 94.6743 29.8068 95.1275 29.0359C95.2149 28.8873 95.4035 28.83 95.5523 28.9155L98.5773 30.6548C98.7188 30.7361 98.7708 30.9166 98.6898 31.0592C97.8831 32.4791 96.759 33.6133 95.3176 34.4616C93.7899 35.3607 92.0967 35.8102 90.238 35.8102Z" fill="#5229A3"></path><path d="M110.666 35.7877C107.865 35.7877 105.485 34.8115 103.524 32.8592C101.564 30.9068 100.583 28.5049 100.583 25.6535C100.583 22.802 101.564 20.4001 103.524 18.4477C105.485 16.4954 107.736 15.6177 110.537 15.6177C112.799 15.6177 115.403 16.7849 116.647 18.7038C116.661 18.7263 116.679 18.7469 116.698 18.7652C116.956 19.0069 116.946 19.0964 117.31 19.4632C119.27 21.4156 120.749 22.802 120.749 25.6535C120.749 28.7454 119.893 31.1969 117.959 33.0567C116.025 34.9165 113.492 35.7877 110.666 35.7877ZM106.427 30.0077C107.573 31.1637 108.986 31.7417 110.666 31.7417C112.347 31.7417 114.014 31.168 115.159 30.012C116.305 28.856 116.668 27.3989 116.668 25.652C116.668 23.9052 116.051 22.4552 114.906 21.2992C113.76 20.1432 112.347 19.5652 110.666 19.5652C108.986 19.5652 107.573 20.1432 106.427 21.2992C105.281 22.4552 104.708 23.9066 104.708 25.6535C104.708 27.4003 105.281 28.8517 106.427 30.0077Z" fill="#5229A3"></path><path d="M110.666 35.7877C107.865 35.7877 105.485 34.8115 103.524 32.8592C101.564 30.9068 100.583 28.5049 100.583 25.6535C100.583 22.802 101.564 20.4001 103.524 18.4477C105.485 16.4954 107.736 15.6177 110.537 15.6177C112.799 15.6177 115.403 16.7849 116.647 18.7038C116.661 18.7263 116.679 18.7469 116.698 18.7652C116.956 19.0069 116.946 19.0964 117.31 19.4632C119.27 21.4156 120.749 22.802 120.749 25.6535C120.749 28.7454 119.893 31.1969 117.959 33.0567C116.025 34.9165 113.492 35.7877 110.666 35.7877ZM106.427 30.0077C107.573 31.1637 108.986 31.7417 110.666 31.7417C112.347 31.7417 114.014 31.168 115.159 30.012C116.305 28.856 116.668 27.3989 116.668 25.652C116.668 23.9052 116.051 22.4552 114.906 21.2992C113.76 20.1432 112.347 19.5652 110.666 19.5652C108.986 19.5652 107.573 20.1432 106.427 21.2992C105.281 22.4552 104.708 23.9066 104.708 25.6535C104.708 27.4003 105.281 28.8517 106.427 30.0077Z" fill="#5229A3"></path><path d="M116.668 16.3343C116.668 16.1667 116.803 16.0308 116.969 16.0308H120.449C120.615 16.0308 120.75 16.1667 120.75 16.3343V25.3486C120.75 25.5162 120.615 25.652 120.449 25.652H116.668V16.3343Z" fill="#5229A3"></path><path d="M135.297 15.562C137.92 15.562 140.16 16.551 142.019 18.5291C143.878 20.4814 144.807 22.8705 144.807 25.6963C144.807 28.5477 143.878 30.9496 142.019 32.902C140.16 34.8543 137.92 35.8305 135.297 35.8305C132.394 35.8305 130.166 34.7516 128.613 32.5937V43.6963C128.613 43.891 128.434 44.0354 128.246 43.9923L124.723 43.1857C124.586 43.1543 124.488 43.0315 124.488 42.8897V16.3664C124.488 16.1988 124.623 16.0629 124.789 16.0629H128.312C128.478 16.0629 128.613 16.1988 128.613 16.3664V18.8373C130.166 16.6538 132.394 15.562 135.297 15.562ZM130.332 30.1276C131.478 31.2836 132.916 31.8616 134.648 31.8616C136.379 31.8616 137.818 31.2836 138.963 30.1276C140.109 28.9459 140.682 27.4688 140.682 25.6963C140.682 23.9237 140.109 22.4595 138.963 21.3035C137.818 20.1218 136.379 19.5309 134.648 19.5309C132.916 19.5309 131.478 20.1218 130.332 21.3035C129.186 22.4595 128.613 23.9237 128.613 25.6963C128.613 27.4688 129.186 28.9459 130.332 30.1276Z" fill="#5229A3"></path><path d="M157.727 18.6912C157.727 18.8588 157.592 18.9947 157.426 18.9947H153.371V29.3301C153.371 30.1265 153.549 30.7044 153.905 31.0641C154.262 31.398 154.784 31.5907 155.471 31.6421C156.111 31.6651 156.884 31.6571 157.791 31.6181C157.963 31.6107 158.107 31.7488 158.107 31.9222V35.0723C158.107 35.2258 157.993 35.3554 157.841 35.3723C154.822 35.7109 152.644 35.4308 151.308 34.5321C149.933 33.5816 149.246 31.8476 149.246 29.3301V18.9947H146.033C145.867 18.9947 145.732 18.8588 145.732 18.6912V15.2907C145.732 15.1231 145.867 14.9872 146.033 14.9872H149.246V11.0522C149.246 10.9178 149.333 10.7994 149.461 10.7612L152.984 9.70801C153.177 9.65038 153.371 9.79613 153.371 9.99898V14.9872H157.426C157.592 14.9872 157.727 15.1231 157.727 15.2907V18.6912Z" fill="#5229A3"></path><path d="M171.841 18.6907C171.841 18.8583 171.706 18.9942 171.54 18.9942H167.485V29.3296C167.485 30.126 167.663 30.7039 168.019 31.0636C168.376 31.3975 168.898 31.5902 169.585 31.6416C170.225 31.6646 170.998 31.6567 171.905 31.6176C172.077 31.6102 172.221 31.7483 172.221 31.9217V35.0718C172.221 35.2253 172.107 35.3549 171.956 35.3718C168.936 35.7104 166.758 35.4303 165.422 34.5316C164.047 33.5811 163.36 31.8471 163.36 29.3296V18.9942H160.147C159.981 18.9942 159.846 18.8583 159.846 18.6907V15.2902C159.846 15.1226 159.981 14.9867 160.147 14.9867H163.36V11.0517C163.36 10.9173 163.447 10.7989 163.575 10.7608L167.098 9.70752C167.291 9.64989 167.485 9.79564 167.485 9.9985V14.9867H171.54C171.706 14.9867 171.841 15.1226 171.841 15.2902V18.6907Z" fill="#5229A3"></path><path d="M183.917 35.8418C181.116 35.8418 178.735 34.8656 176.775 32.9132C174.814 30.9609 173.834 28.559 173.834 25.7075C173.834 22.856 174.814 20.4541 176.775 18.5018C178.735 16.5494 181.116 15.5732 183.917 15.5732C186.743 15.5732 189.124 16.5494 191.059 18.5018C193.02 20.4541 194 22.856 194 25.7075C194 28.559 193.02 30.9609 191.059 32.9132C189.124 34.8656 186.743 35.8418 183.917 35.8418ZM179.678 30.0618C180.823 31.2178 182.237 31.7958 183.917 31.7958C185.598 31.7958 187.011 31.2178 188.156 30.0618C189.302 28.9058 189.875 27.4544 189.875 25.7075C189.875 23.9607 189.302 22.5092 188.156 21.3532C187.011 20.1972 185.598 19.6192 183.917 19.6192C182.237 19.6192 180.823 20.1972 179.678 21.3532C178.532 22.5092 177.959 23.9607 177.959 25.7075C177.959 27.4544 178.532 28.9058 179.678 30.0618Z" fill="#5229A3"></path><path d="M183.917 35.8418C181.116 35.8418 178.735 34.8656 176.775 32.9132C174.814 30.9609 173.834 28.559 173.834 25.7075C173.834 22.856 174.814 20.4541 176.775 18.5018C178.735 16.5494 181.116 15.5732 183.917 15.5732C186.743 15.5732 189.124 16.5494 191.059 18.5018C193.02 20.4541 194 22.856 194 25.7075C194 28.559 193.02 30.9609 191.059 32.9132C189.124 34.8656 186.743 35.8418 183.917 35.8418ZM179.678 30.0618C180.823 31.2178 182.237 31.7958 183.917 31.7958C185.598 31.7958 187.011 31.2178 188.156 30.0618C189.302 28.9058 189.875 27.4544 189.875 25.7075C189.875 23.9607 189.302 22.5092 188.156 21.3532C187.011 20.1972 185.598 19.6192 183.917 19.6192C182.237 19.6192 180.823 20.1972 179.678 21.3532C178.532 22.5092 177.959 23.9607 177.959 25.7075C177.959 27.4544 178.532 28.9058 179.678 30.0618Z" fill="#5229A3"></path><ellipse cx="46.2964" cy="20.7284" rx="20.5455" ry="20.7286" transform="rotate(-180 46.2964 20.7284)" fill="#00DC93"></ellipse><ellipse cx="29.0697" cy="24.3962" rx="17.2266" ry="17.3801" transform="rotate(-180 29.0697 24.3962)" fill="#76F4A0"></ellipse><ellipse cx="13.9077" cy="27.7447" rx="13.9078" ry="14.0317" transform="rotate(-180 13.9077 27.7447)" fill="#C7FAD8"></ellipse></svg> 